<svg xmlns="http://www.w3.org/2000/svg" xmlns:xlink="http://www.w3.org/1999/xlink" viewBox="0 0 522 390"><defs><style>.cls-1{fill:#5d428c;}.cls-2{fill:#fff;}.cls-3{fill:#432f64;}.cls-4{fill:#ffcdab;}.cls-26,.cls-35,.cls-38,.cls-5{fill:none;}.cls-6{fill:#ffba8b;}.cls-7{fill:#0f66ab;}.cls-8{fill:#ffda00;}.cls-9{isolation:isolate;}.cls-10{fill:#fc5a20;}.cls-11{fill:#b99ee8;}.cls-12{clip-path:url(#clip-path);}.cls-13{opacity:0.15;}.cls-13,.cls-20{mix-blend-mode:multiply;}.cls-14{fill:#b37c51;}.cls-15{fill:#99391b;}.cls-16{clip-path:url(#clip-path-2);}.cls-17{fill:#eba36c;}.cls-18{clip-path:url(#clip-path-3);}.cls-19{clip-path:url(#clip-path-4);}.cls-20{opacity:0.1;}.cls-21{fill:#b77849;}.cls-22{clip-path:url(#clip-path-5);}.cls-23{clip-path:url(#clip-path-6);}.cls-24{clip-path:url(#clip-path-7);}.cls-25{opacity:0.2;}.cls-26{stroke:#000;}.cls-26,.cls-35,.cls-38{stroke-linecap:round;stroke-linejoin:round;stroke-width:0.36px;}.cls-27{clip-path:url(#clip-path-8);}.cls-28{clip-path:url(#clip-path-9);}.cls-29{fill:#c9a287;}.cls-30{clip-path:url(#clip-path-10);}.cls-31{fill:#9267dc;}.cls-32{fill:#cdb9ef;}.cls-33{clip-path:url(#clip-path-11);}.cls-34{clip-path:url(#clip-path-12);}.cls-35{stroke:#5d428c;}.cls-36{fill:#ea2828;}.cls-37{clip-path:url(#clip-path-13);}.cls-38{stroke:#85390e;}.cls-39{clip-path:url(#clip-path-14);}.cls-40{clip-path:url(#clip-path-15);}.cls-41{clip-path:url(#clip-path-16);}.cls-42{clip-path:url(#clip-path-17);}.cls-43{clip-path:url(#clip-path-18);}.cls-44{clip-path:url(#clip-path-19);}</style><clipPath id="clip-path"><path class="cls-1" d="M318.46,165.52c-5.48,21.57-2.88,71.6.89,94.57,4.64,28.22,10.72,59.36,11.79,62.62,4.64.74,6.74,3.94,9.56,4.89.32-2.05-.23-25.71-.37-37.46-.1-8,2.36-31.32,3.11-54.58.92-28.72.19-57.48.36-58.73.38-1.54,1.75-2.41,2.45,0,1.92,9.19,7.21,65,10.47,79.23s14.49,61.31,15.1,67.42c2.65,1.25,6.6,4.8,10.53,4.08-.06-8.36-3.26-67.15-1.63-80.71s-.3-39-3-56.91-3.26-26.68-6.08-29.64c-1.36-1.44-12.36-10.08-25.64-8.9C333.11,152.6,321.34,154.21,318.46,165.52Z"/></clipPath><clipPath id="clip-path-2"><path class="cls-2" d="M450.53,233.33a1.18,1.18,0,0,0,1-.58,21.57,21.57,0,0,0,0-19.06,1.19,1.19,0,0,0-1-.59H66.09a1.19,1.19,0,0,0-1,.59,21.65,21.65,0,0,0,0,19.06,1.18,1.18,0,0,0,1,.58Z"/></clipPath><clipPath id="clip-path-3"><path class="cls-6" d="M138.31,182.9c3.76,2,17.25,6.47,27.11,1.78,1.63-.78-1.62,15.75-10.59,16s-18.4-9-20.82-11.12S133.27,180.19,138.31,182.9Z"/></clipPath><clipPath id="clip-path-4"><path class="cls-6" d="M339.51,209.4c4,.54,10.82,2.28,18.13,3.7h33.48c8.53-1.39,17.66-2.78,27.11-1.63,4.07.5,5.68-2.19,5.24-4.78s-2.46-4.87-6.59-4.43c-17.52,1.9-41.13-5.95-64.84-11-12-2.57-18.46-1.05-25.57-.75s-14.38-2.89-22.16-4.6c-5.5-1.2-10.27,6.46-10.6,14.9-.24,6.26,3,12.46,10.48,12.3C320.89,212.74,331.8,208.36,339.51,209.4Z"/></clipPath><clipPath id="clip-path-5"><path class="cls-3" d="M160,213.1c-3.67-1-7.35-7.72-7.35-12.49,0-3.07,3.78-9.15,13.24-16.3,10.6-8,24.79-9.34,41.35-5.45s33.17,4.09,37,2c2.67-1.44,8,5.78,9.12,14.68a75.23,75.23,0,0,1,0,17.56Z"/></clipPath><clipPath id="clip-path-6"><path class="cls-1" d="M186.62,191.52c-12.19-.76-26.13,1.25-33.88,8.36-.5,5.07,3.61,12.22,7.28,13.22h26.09C188.62,205.14,188.18,194.26,186.62,191.52Z"/></clipPath><clipPath id="clip-path-7"><path class="cls-8" d="M253.4,213.1c-4.93-5-9.22-21.76-8.79-32.36.28-6.82,6.58-33.2,7.66-35.52,4,2.45,24.93,4,26.42,1.36.27,1.23,2.89,15.41-1.12,36.3,4.15.23,24.59,2.58,26.74,3,.52,3.56,5,14.6-.43,27.2Z"/></clipPath><clipPath id="clip-path-8"><path class="cls-3" d="M432.16,181.65c.37,3.84-1.16,22.13-3.58,30.35a1.09,1.09,0,0,1-1.12.78c-3.19-.21-8.86-1.3-9.63-1.35a10.74,10.74,0,0,1-1.68-9.09,37.08,37.08,0,0,0,8.38-9.14C427.06,189,428.76,180.09,432.16,181.65Z"/></clipPath><clipPath id="clip-path-9"><path class="cls-4" d="M324.24,53c.75,1.93,1.86,11.31-1.47,14.76-2.83,2.92,7.7,10.66,16.82,5.1S356.36,62,354.65,60c-4.62-.57-8.91-3.37-12-5.72a24.85,24.85,0,0,1-8.05-10.49c-.79-2.09-6-.87-8.29,1.26A7.36,7.36,0,0,0,324.24,53Z"/></clipPath><clipPath id="clip-path-10"><path class="cls-4" d="M295.86,102.83c-3.5,5.84-17.93,26.31-14.23,33.87,4.6,9.37,8,10.67,9.49,10.89,2.59.37,11.63-5.47,13.86-15.67s6.74-17.31,8.67-22.09C316.65,102.38,302.09,92.45,295.86,102.83Z"/></clipPath><clipPath id="clip-path-11"><path class="cls-5" d="M349.08,58.27c-.86,4.5-3,8.32-10.45,11.89-4,1.92-12.66,1.09-15.87-2.46a51.66,51.66,0,0,1-5.57,4.64c.29,2.64-1.07,20.93-1.3,22.71-.31,2.46,1.46,5.27,2,6.37,3.59,7.5,8.3,19.8,8.65,25,.62,9.38-8.72,33.91-12.13,38.57,2,4.08,16.08,12.18,32.38,11.86,14.5-.28,30.39-8.71,30.39-11.93-3-4.37-13-35.52-12.77-47.42.15-6.79,1.55-12.84,2.43-18.47a81.15,81.15,0,0,0,.53-10.75c-.06-.47-.49-26.07-.64-26.87A56.74,56.74,0,0,1,349.08,58.27Z"/></clipPath><clipPath id="clip-path-12"><path class="cls-5" d="M367.32,87.06c4.78,4.43,13.54,15.22,15.1,18.07,6.47-.92,14.23-6.3,16.37-13-3.7-5.45-15.31-20.5-29.93-30.1a4.11,4.11,0,0,0-2.15-.65C364.17,62.25,360.57,80.69,367.32,87.06Z"/></clipPath><clipPath id="clip-path-13"><path class="cls-6" d="M228.13,176.79c-.15-3.64-9-5.28-10.08-.89-.6,1.26-1.71,7.26-6.45,13-2.64,3.22-4.74,6.52-5.34,9-.75.27-12.12-.22-18.48-.83a46.21,46.21,0,0,1-1.67,15.95h35.68C229.53,199.09,228.23,179.31,228.13,176.79Z"/></clipPath><clipPath id="clip-path-14"><path class="cls-7" d="M300.37,18.16c-.19-2.12.92-4.52,4.3-6.76,1.84-.87,36.7,14.89,30.89,16.06C304.56,33.68,300.51,19.68,300.37,18.16Z"/></clipPath><clipPath id="clip-path-15"><path class="cls-6" d="M358.56,111.83c-1.78-1.81-4.45-3.63-7.82-1.78-6.24,3.43-33.2,4-71.7.63a17.21,17.21,0,0,0-16.9,9.36c-3,5.75-8.34,18.45-9.86,25.18,4,2.45,24.92,4,26.41,1.36h0c-.48-11.27.36-13.2.65-14.31,5.93,1.44,18.56,2.89,28.08.2,12.69-3.58,34.13-11.86,45.91-12.63C358.55,119.5,360.55,113.87,358.56,111.83Z"/></clipPath><clipPath id="clip-path-16"><path class="cls-3" d="M363.08,87c1,3.89,2.35,23,1.17,31.79a1.14,1.14,0,0,1-1,1c-3.32.29-9.1,0-9.9.09-.88-.93-4-4.64-3.36-9.42,1.66-1.74,5.95-5.89,7.77-10.41C359.66,95.25,360.34,86,363.08,87Z"/></clipPath><clipPath id="clip-path-17"><path class="cls-4" d="M285,118.47a.52.52,0,0,1,.83.27,7.36,7.36,0,0,0,.3,1.21,3.36,3.36,0,0,1,1.08-1.38.37.37,0,0,1,.52.09,4.88,4.88,0,0,1,.66,1.51c.19-.5.39-.72.71-.83,1.17,1,1.59,3.55,1.65,3.94a1.94,1.94,0,0,1,.51-.55,21.39,21.39,0,0,1,3.08,5.81,29.11,29.11,0,0,1,1.63,8.8c-.19.87-2.42,1.29-3.25.56-.94,1.06-3.31,1-4.42,0-1.05,1.14-4.11.86-4.94-1.06-.64,1-4.7,1.39-4.71-.39C278.62,133.3,279,123.6,285,118.47Z"/></clipPath><clipPath id="clip-path-18"><path class="cls-4" d="M412.43,111.65c-1.42-4-10.8-14.13-14.33-17.79-2.22,4.65-7.05,8.48-11.91,10.29,1.52,2,3.12,3.46,3.27,4-1,.5-8.78,3.61-16.17,1.72-4.16-1.06-6.45-9.56-6.84-12.5-.28-2.12-1.37-4.4-2.55-4.4h0c.67,7,1.15,17.92.49,24.57h0c.29,3.94,6.83.93,14.62,1.33,7.34.37,14.42,3.14,24.27,4.26C412.51,124.14,413.66,115.07,412.43,111.65Z"/></clipPath><clipPath id="clip-path-19"><path class="cls-5" d="M40,256.67c3.29,13.41,26.47,45,75,20.11,58.77-30.17,60.62-23.46,102.58-.79C242,289.21,351.24,391.33,416.62,376.54S500.53,50.26,304.4,56.17,28.29,208.82,40,256.67Z"/></clipPath></defs><title>_</title><g class="cls-9"><g id="Layer_1" data-name="Layer 1"><path class="cls-10" d="M40,256.67c3.29,13.41,26.47,45,75,20.11,58.77-30.17,60.62-23.46,102.58-.79C242,289.21,351.24,391.33,416.62,376.54S500.53,50.26,304.4,56.17,28.29,208.82,40,256.67Z"/></g><g id="Layer_2" data-name="Layer 2"><path class="cls-11" d="M372.6,322.71c-3.11,4.07-12,6.59-14.79,8.15-2.28,1.28-3.66,2.74-3.81,5.11,1.82.2,22.87,0,28,0a.92.92,0,0,0,.9-1.1,89.45,89.45,0,0,1-.78-9.88C381.64,321.25,374,320.94,372.6,322.71Z"/><path class="cls-2" d="M382.56,331.93H356.2a5.36,5.36,0,0,0-2.2,4c1.82.2,22.87,0,28,0a.92.92,0,0,0,.9-1.1C382.76,334.17,382.68,333.09,382.56,331.93Z"/><path class="cls-11" d="M331.14,322.71c-3.12,4.07-12,6.59-14.79,8.15-2.29,1.28-3.67,2.74-3.81,5.11,1.82.2,22.86,0,28,0a.91.91,0,0,0,.89-1.1c-.37-1.91-.68-6-.87-7.77C340.17,323.35,332.48,320.94,331.14,322.71Z"/><path class="cls-2" d="M341.06,331.93H314.73a5.32,5.32,0,0,0-2.19,4c1.82.2,22.86,0,28,0a.91.91,0,0,0,.89-1.1C341.28,334.1,341.16,333,341.06,331.93Z"/><path class="cls-1" d="M318.46,165.52c-5.48,21.57-2.88,71.6.89,94.57,4.64,28.22,10.72,59.36,11.79,62.62,4.64.74,6.74,3.94,9.56,4.89.32-2.05-.23-25.71-.37-37.46-.1-8,2.36-31.32,3.11-54.58.92-28.72.19-57.48.36-58.73.38-1.54,1.75-2.41,2.45,0,1.92,9.19,7.21,65,10.47,79.23s14.49,61.31,15.1,67.42c2.65,1.25,6.6,4.8,10.53,4.08-.06-8.36-3.26-67.15-1.63-80.71s-.3-39-3-56.91-3.26-26.68-6.08-29.64c-1.36-1.44-12.36-10.08-25.64-8.9C333.11,152.6,321.34,154.21,318.46,165.52Z"/><g class="cls-12"><path class="cls-13" d="M374.75,328.17c0-10-21.64-128.43-24.88-158.69-.58-3.51-3.93-3.42-5.84-3.27l3,36s5.77,55.75,11.55,72.53,9.84,48.78,9.84,48.78Z"/></g><rect class="cls-14" x="73.01" y="233.33" width="370.6" height="14.51"/><rect class="cls-13" x="73.01" y="233.33" width="370.6" height="2.75"/><rect class="cls-15" x="408.45" y="247.85" width="13.34" height="88.72"/><path class="cls-2" d="M450.53,233.33a1.18,1.18,0,0,0,1-.58,21.57,21.57,0,0,0,0-19.06,1.19,1.19,0,0,0-1-.59H66.09a1.19,1.19,0,0,0-1,.59,21.65,21.65,0,0,0,0,19.06,1.18,1.18,0,0,0,1,.58Z"/><g class="cls-16"><path class="cls-13" d="M459.27,228.93H67a1.2,1.2,0,0,1-1-.59,21.65,21.65,0,0,1,0-19.06c-4.47,5.16-10.11,22.67-7.14,28.58s396.92,0,396.92,0Z"/></g><path class="cls-17" d="M118.52,174.47l7.63-4.17a1.8,1.8,0,0,1,2.6.89,28.37,28.37,0,0,1,1.43,2.84l-11.36,1.68Z"/><path class="cls-6" d="M110.15,176.79c11.93-4.75,28-4.47,31.1-3.13.52,2.52-.79,12.32-3.76,15.65s-18.78,4.84-25.64,2.77C107.68,190.82,103.43,179.46,110.15,176.79Z"/><path class="cls-6" d="M138.31,182.9c3.76,2,17.25,6.47,27.11,1.78,1.63-.78-1.62,15.75-10.59,16s-18.4-9-20.82-11.12S133.27,180.19,138.31,182.9Z"/><g class="cls-18"><path class="cls-13" d="M137.94,177.68l-8.6,11.41c5.5,1.76,31.09.5,36.49-3.41C169.16,183.27,137.94,177.68,137.94,177.68Z"/></g><path class="cls-6" d="M339.51,209.4c4,.54,10.82,2.28,18.13,3.7h33.48c8.53-1.39,17.66-2.78,27.11-1.63,4.07.5,5.68-2.19,5.24-4.78s-2.46-4.87-6.59-4.43c-17.52,1.9-41.13-5.95-64.84-11-12-2.57-18.46-1.05-25.57-.75s-14.38-2.89-22.16-4.6c-5.5-1.2-10.27,6.46-10.6,14.9-.24,6.26,3,12.46,10.48,12.3C320.89,212.74,331.8,208.36,339.51,209.4Z"/><g class="cls-19"><path class="cls-20" d="M293.71,197.38c-.24,6.26,3,12.46,10.48,12.3,16.7-.36,27.61-4.74,35.32-3.71s25.57,6.49,37.73,5.6,26.18-5.32,41-3.52c4.07.5,5.68-2.19,5.24-4.78,1.23,3.16,4.46,12.28.07,13s-25-3.66-41.19,1.56c-15.86,5.11-38.58-7-43.36-5.45s-44.68,12-46.13,2.12S290.9,199.11,293.71,197.38Z"/></g><path class="cls-17" d="M118.52,174.47l7.63-4.17a1.8,1.8,0,0,1,2.6.89,28.37,28.37,0,0,1,1.43,2.84l-11.36,1.68Z"/><path class="cls-6" d="M110.15,176.79c11.72-4.67,27.36-4.47,30.92-3.2a.3.3,0,0,1,.21.26c.34,2.79-.89,12.21-3.79,15.46s-18.78,4.84-25.64,2.77C107.68,190.82,103.43,179.46,110.15,176.79Z"/><path class="cls-6" d="M210.6,179.6c2-2.12,7.32-8.61,12.89-7.35s6.95,5.95,8.67,9.91c1.45,3.33-6.32,4.19-13.61,3C215.38,184.7,208.62,181.75,210.6,179.6Z"/><path class="cls-21" d="M126.39,188.29c-.34,2.41-9.72,19.29-11.33,20A8.46,8.46,0,0,1,105,205c-3-4.88-1.3-12-2.84-17-1.06-3.47-4-7-5.52-9s-1.69-3.83-.48-5.29c3.46-4.16,9.76-4,12.5-3.65,2,3.41,1.63,6.08,1.26,8.82a6.75,6.75,0,0,1,1.69,6.73,6.33,6.33,0,0,0,4.1,0,1.89,1.89,0,0,1,2.16.47c1.22,1.47,3.73,2.74,7.07,1.33A6.46,6.46,0,0,1,126.39,188.29Z"/><path class="cls-3" d="M160,213.1c-3.67-1-7.35-7.72-7.35-12.49,0-3.07,3.78-9.15,13.24-16.3,10.6-8,24.79-9.34,41.35-5.45s33.17,4.09,37,2c2.67-1.44,8,5.78,9.12,14.68a75.23,75.23,0,0,1,0,17.56Z"/><g class="cls-22"><path class="cls-13" d="M226.2,209.49c4.4-10.34,4.82-22.54,4.73-28.81-2.1-.09-5.27-1.54-5.05,2.41.18,3.1-2.33,19.08-4.74,26.4H153.69c.47,1.9,2.48,4.23,6.54,4.37,23.44.85,91,1.11,92.17,1,1.33-.11,2.44-2.56,2.44-5.39Z"/></g><path class="cls-1" d="M186.62,191.52c-12.19-.76-26.13,1.25-33.88,8.36-.5,5.07,3.61,12.22,7.28,13.22h26.09C188.62,205.14,188.18,194.26,186.62,191.52Z"/><g class="cls-23"><path class="cls-13" d="M161,209.49c-4.59,0-6.67-2.48-7.31-3.94l-.17,8.94H187v-5Z"/></g><path class="cls-11" d="M153.72,204.36c0-8.21-6.9-14.86-19.38-14.86S115,196.15,115,204.36a13.23,13.23,0,0,0,3.23,8.74h32.3A13.18,13.18,0,0,0,153.72,204.36Z"/><path class="cls-8" d="M253.4,213.1c-4.93-5-9.22-21.76-8.79-32.36.28-6.82,6.58-33.2,7.66-35.52,4,2.45,24.93,4,26.42,1.36.27,1.23,2.89,15.41-1.12,36.3,4.15.23,24.59,2.58,26.74,3,.52,3.56,5,14.6-.43,27.2Z"/><g class="cls-24"><path class="cls-13" d="M281.23,148c-.53-3.09-4.85-2.17-6.33-1.4.15,1.51.22,23.58-2.09,36.17,1.62,0,6.87.3,7.94.41C281.24,182.15,281.76,151.07,281.23,148Z"/><path class="cls-13" d="M305.87,209.54H248.8c.6,2,3.49,5.19,6.08,5.27s46.76,1,48.76,0S307.94,209.54,305.87,209.54Z"/></g><g class="cls-25"><path class="cls-26" d="M130.45,190.42c8,1.78,10.69,8.16,10.73,11.84a9.48,9.48,0,0,1-8.28,9.17c-4.56.69-8.06-1.67-8.57-5.45-.63-4.77,3.66-7.61,8.2-8.22,3.31-.45,8.65.7,8.21,7.11"/><path class="cls-26" d="M140.68,192.16c5,2.56,7.8,12.67,3,20.16"/><path class="cls-26" d="M124,197.31c-1.27,2.5-2.45,7.24.16,10.71"/><path class="cls-26" d="M111.11,190.92c-1.83,4.34,0,8.67-1.83,12.67"/><path class="cls-26" d="M114.39,189.25c-2.67,3.65-.84,10.92-2.67,14.34"/><path class="cls-26" d="M109,188.79c-1.74,2.13-1.07,8.47-2.56,11.12"/><path class="cls-26" d="M258.44,183a127.67,127.67,0,0,1,15.34-.37"/></g><path class="cls-3" d="M432.16,181.65c.37,3.84-1.16,22.13-3.58,30.35a1.09,1.09,0,0,1-1.12.78c-3.19-.21-8.86-1.3-9.63-1.35a10.74,10.74,0,0,1-1.68-9.09,37.08,37.08,0,0,0,8.38-9.14C427.06,189,428.76,180.09,432.16,181.65Z"/><g class="cls-27"><path class="cls-13" d="M414.5,207.72c.77.06,12.23,1.32,15.42,1.53-.11,1.89,0,4-1.74,4.33S412.83,213.65,414.5,207.72Z"/></g><path class="cls-7" d="M303.2,20.12c-2.67-2.52-4.34-4.88,1.47-8.72s28.14-7.77,35.77-3.62c8.63,4.71,9,14.34,16.71,20.64,11.4,9.32,22.56,10.56,27.64,12.71,6.89,2.93,8.39,9.09,5.56,18.46-2.08,6.85-7.78,12.15-13.56,15.15S330.65,94,309.11,87.12c-6.93-2.2-14.68-6.51-17.92-11.12-3.58-5.11-2.69-13.17,2.3-16.45,5.63-3.71,16.23-7.32,12.79-14.88s-9.15-14.12-8.64-17.21C298.08,24.79,300.29,22.72,303.2,20.12Z"/><path class="cls-4" d="M324.24,53c.75,1.93,1.86,11.31-1.47,14.76-2.83,2.92,7.7,10.66,16.82,5.1S356.36,62,354.65,60c-4.62-.57-8.91-3.37-12-5.72a24.85,24.85,0,0,1-8.05-10.49c-.79-2.09-6-.87-8.29,1.26A7.36,7.36,0,0,0,324.24,53Z"/><g class="cls-28"><path class="cls-20" d="M323,49.89c1.36-.61,9.31-6.86,10.57-9.82-.34,6.56-.06,27-8.08,31.27S316.62,52.74,323,49.89Z"/></g><path class="cls-4" d="M331.71,35.85c-.44-2.5.94-4.86,2.84-4.56,2.23.36,3.08,3.3,1.53,8.35-.12.41-1,.91-2.21.59a17.19,17.19,0,0,1,.65,3.19c-3.55,6.61-11.2,13-13.37,12.52-2.44-.56-9.84-11.58-12.39-19.14-1.72-5.09-1-11.32,1.44-14.56,2.84-3.84,10-4.95,13.51.61C327.91,29.52,331.27,35.07,331.71,35.85Z"/><path class="cls-29" d="M313.51,34.32l-1.67.69L313,43.7a1.8,1.8,0,0,0,2.58,1.35,10.78,10.78,0,0,0,3.1-1.64Z"/><path class="cls-4" d="M295.86,102.83c-3.5,5.84-17.93,26.31-14.23,33.87,4.6,9.37,8,10.67,9.49,10.89,2.59.37,11.63-5.47,13.86-15.67s6.74-17.31,8.67-22.09C316.65,102.38,302.09,92.45,295.86,102.83Z"/><g class="cls-30"><path class="cls-13" d="M297.18,147c-1.48-.22-8.75-1.35-12.29-10.47-3-7.84,10.73-28,14.23-33.86-2.31-2.16-5.7-6.23-7.78-1.48s-16.2,22.61-13.49,34S289.25,151.59,297.18,147Z"/></g><path class="cls-31" d="M317.87,101.42c-1,2-5.73,12.89-8.38,17.28-4.23.1-16-1.94-19.5-6.5,7.25-13.19,23.69-38.27,27.2-39.86C318.37,74.09,321.28,93.08,317.87,101.42Z"/><path class="cls-11" d="M349.08,58.27c-.86,4.5-3,8.32-10.45,11.89-4,1.92-12.66,1.09-15.87-2.46a51.66,51.66,0,0,1-5.57,4.64c.29,2.64-1.07,20.93-1.3,22.71-.31,2.46,1.46,5.27,2,6.37,3.59,7.5,8.3,19.8,8.65,25,.62,9.38-8.72,33.91-12.13,38.57,2,4.08,16.08,12.18,32.38,11.86,14.5-.28,30.39-8.71,30.39-11.93-3-4.37-13-35.52-12.77-47.42.15-6.79,1.55-12.84,2.43-18.47a81.15,81.15,0,0,0,.53-10.75c-.06-.47-.49-26.07-.64-26.87A56.74,56.74,0,0,1,349.08,58.27Z"/><path class="cls-32" d="M290,112.2c3.52,4.56,15.27,6.6,19.5,6.5,1.11-1.84,2.58-4.8,4-7.78C309,110.21,300,106,296,102,293.69,105.54,291.65,109.18,290,112.2Z"/><path class="cls-31" d="M367.32,87.06c4.78,4.43,13.54,15.22,15.1,18.07,6.47-.92,14.23-6.3,16.37-13-3.7-5.45-15.31-20.5-29.93-30.1a4.11,4.11,0,0,0-2.15-.65C364.17,62.25,360.57,80.69,367.32,87.06Z"/><path class="cls-32" d="M350.89,136.18c-.18,6.59,2.39,17.34,4.55,20.17,3.22.81,12.43-1.34,16.66-4-2-6.1-4.14-13.47-5.65-20.18C363.15,134.32,358.71,136.1,350.89,136.18Z"/><path class="cls-32" d="M342.44,78c9.86-5.19,13.36-12.67,14.44-17.67a45.07,45.07,0,0,1-7.8-2.1c-.86,4.5-3,8.32-10.45,11.89-4,1.92-12.66,1.09-15.87-2.46-1.12,1.07-2.35,2.13-4.21,3.61C323.62,80.11,334.81,82.06,342.44,78Z"/><path class="cls-32" d="M392.16,83.51c-3.08,5.09-10.69,11.59-15.52,13.86a72.36,72.36,0,0,1,5.78,7.76c6.47-.92,14.23-6.3,16.37-13C397.49,90.25,395.21,87.15,392.16,83.51Z"/><path class="cls-32" d="M329.71,138.13a13.48,13.48,0,0,1-4.75-.71,140.15,140.15,0,0,1-4.89,15.3,16.28,16.28,0,0,0,5.36,1.88C327.54,151.13,329.54,139.87,329.71,138.13Z"/><g class="cls-33"><path class="cls-13" d="M363.46,74s-11.6,30.28,0,67.89,14.4,37.31,14.4,37.31l9.86-2.4s-21.23-65.33-19.48-86.34a8.35,8.35,0,0,0-.91-3.36C362.9,82.88,363.46,74,363.46,74Z"/></g><g class="cls-34"><path class="cls-13" d="M364.87,60.14c-1.67,7.36-1.92,19.23,3.57,24.42,5.71,5.29,16.17,18.17,18,21.57a47.53,47.53,0,0,1-6.79,1.93c-1.63.1-16.6-19.12-17.64-24S358.42,66.81,364.87,60.14Z"/></g><path class="cls-35" d="M328.17,103.42c2.45.74,19.05,3.19,19.94,3.34"/><path class="cls-35" d="M334.4,135.21c4.3,2.23,23.93,12.23,25.34,13.27"/><path class="cls-35" d="M327.56,126.32c.77,3.16,2.08,5.93,2.15,6.89"/><path class="cls-35" d="M318.75,102.51c3.74,3.66,9.88,5.77,13.79,6.25"/><circle class="cls-36" cx="335.21" cy="40.05" r="2.07"/><path class="cls-6" d="M228.13,176.79c-.15-3.64-9-5.28-10.08-.89-.6,1.26-1.71,7.26-6.45,13-2.64,3.22-4.74,6.52-5.34,9-.75.27-12.12-.22-18.48-.83a46.21,46.21,0,0,1-1.67,15.95h35.68C229.53,199.09,228.23,179.31,228.13,176.79Z"/><g class="cls-37"><path class="cls-13" d="M183.14,214.29l5.07,1.51s2-5.77,2.17-19.5h-4.27S186.11,213.1,183.14,214.29Z"/></g><path class="cls-38" d="M218.34,202.06a18.68,18.68,0,0,1,3.41,10.82"/><path class="cls-38" d="M206.21,198.23a6,6,0,0,0-.28,3"/><path class="cls-38" d="M217.6,177.2a13.89,13.89,0,0,1-1,3.48"/><path class="cls-38" d="M228.05,177.86c0,.82,0,3,0,4"/><path class="cls-7" d="M300.37,18.16c-.19-2.12.92-4.52,4.3-6.76,1.84-.87,36.7,14.89,30.89,16.06C304.56,33.68,300.51,19.68,300.37,18.16Z"/><g class="cls-39"><path class="cls-13" d="M304.22,11.3c-1.86,2.4-.42,4.21,1.58,6.1,4.41,3.8,17.65,11.64,32.74,9.66.77,1.84-1.4,1.22-6,2.33s-22.74,2.21-28-2-7-9.38-5.44-12.35A8.44,8.44,0,0,1,304.22,11.3Z"/></g><path class="cls-6" d="M358.56,111.83c-1.78-1.81-4.45-3.63-7.82-1.78-6.24,3.43-33.2,4-71.7.63a17.21,17.21,0,0,0-16.9,9.36c-3,5.75-8.34,18.45-9.86,25.18,4,2.45,24.92,4,26.41,1.36h0c-.48-11.27.36-13.2.65-14.31,5.93,1.44,18.56,2.89,28.08.2,12.69-3.58,34.13-11.86,45.91-12.63C358.55,119.5,360.55,113.87,358.56,111.83Z"/><g class="cls-40"><path class="cls-20" d="M275,150.12s-.3-17.65,1.47-20.84c0,0,18.61,3.86,33.69-1.68,17-6.26,39.59-11.4,45.64-10.33l.73,4.66-42.73,16c-.35.11-32.08,1.73-32.08,1.73l.46,11.69Z"/></g><path class="cls-3" d="M363.08,87c1,3.89,2.35,23,1.17,31.79a1.14,1.14,0,0,1-1,1c-3.32.29-9.1,0-9.9.09-.88-.93-4-4.64-3.36-9.42,1.66-1.74,5.95-5.89,7.77-10.41C359.66,95.25,360.34,86,363.08,87Z"/><g class="cls-41"><path class="cls-13" d="M365.89,116.61c-3.31.29-13.93.73-14.72.8,0,0,1.16,3.09,1.9,3.28s11.05,0,11.64-.8A13.56,13.56,0,0,0,365.89,116.61Z"/></g><path class="cls-4" d="M285,118.47a.52.52,0,0,1,.83.27,7.36,7.36,0,0,0,.3,1.21,3.36,3.36,0,0,1,1.08-1.38.37.37,0,0,1,.52.09,4.88,4.88,0,0,1,.66,1.51c.19-.5.39-.72.71-.83,1.17,1,1.59,3.55,1.65,3.94a1.94,1.94,0,0,1,.51-.55,21.39,21.39,0,0,1,3.08,5.81,29.11,29.11,0,0,1,1.63,8.8c-.19.87-2.42,1.29-3.25.56-.94,1.06-3.31,1-4.42,0-1.05,1.14-4.11.86-4.94-1.06-.64,1-4.7,1.39-4.71-.39C278.62,133.3,279,123.6,285,118.47Z"/><g class="cls-42"><path class="cls-13" d="M296,135.86c-.19.86-2.42,1.29-3.25.56-.94,1.05-3.31,1-4.42,0-1.05,1.14-4.11.86-4.94-1.06-.64,1-4.94,1.39-4.95-.39-.36,1.73-1.25,2.87,1,3.57s17,2,17.12.14A4.64,4.64,0,0,0,296,135.86Z"/></g><path class="cls-4" d="M412.43,111.65c-1.42-4-10.8-14.13-14.33-17.79-2.22,4.65-7.05,8.48-11.91,10.29,1.52,2,3.12,3.46,3.27,4-1,.5-8.78,3.61-16.17,1.72-4.16-1.06-6.45-9.56-6.84-12.5-.28-2.12-1.37-4.4-2.55-4.4h0c.67,7,1.15,17.92.49,24.57h0c.29,3.94,6.83.93,14.62,1.33,7.34.37,14.42,3.14,24.27,4.26C412.51,124.14,413.66,115.07,412.43,111.65Z"/><g class="cls-43"><path class="cls-20" d="M363.45,116.46c2,1.38,8.57-.37,14.9,0,7.34.37,14.42,3.14,24.28,4.26,9.22,1,10.37-8,9.15-11.45,2.21,1.76,6,9.47,2.8,12s-4.74,4.15-9.71,4-18.67-5.71-24.9-4.89S359,122.27,363.45,116.46Z"/></g><path class="cls-38" d="M372.62,110a14.08,14.08,0,0,1,2.11,5.14"/><path class="cls-38" d="M389.85,108.27c4.33-1.94,8.95-3.83,11.39-3.66"/><path class="cls-38" d="M285.89,120.28c-.13,2.49-1.65,9.55-1.81,11.6"/><path class="cls-38" d="M288.44,120.43a61.05,61.05,0,0,1-.39,11.69"/><path class="cls-38" d="M290.75,123.73c.14,1.81,1.18,7.26,1.18,8.85"/><path class="cls-38" d="M364.43,94a35.23,35.23,0,0,1,2.21,6.19,19.1,19.1,0,0,0,1.27,4.08"/><circle class="cls-10" cx="449.2" cy="89.93" r="15.29"/><circle class="cls-10" cx="41.31" cy="171.67" r="11.05"/><g class="cls-44"><rect class="cls-15" x="94.83" y="247.85" width="13.34" height="88.72"/></g><path class="cls-10" d="M85.37,141.87A219.29,219.29,0,0,1,146,93.64c2.83-1.53.31-5.84-2.52-4.31a223.42,223.42,0,0,0-61.64,49c-2.12,2.41,1.41,6,3.54,3.54Z"/><path class="cls-10" d="M157.2,85.92c3.22,0,3.22-5,0-5s-3.22,5,0,5Z"/><path class="cls-10" d="M235,61.64A249.87,249.87,0,0,1,269.62,55c3.16-.38,3.2-5.38,0-5a259.43,259.43,0,0,0-35.92,6.84c-3.1.83-1.79,5.65,1.33,4.82Z"/><path class="cls-10" d="M279.9,54.68c3.22,0,3.23-5,0-5s-3.22,5,0,5Z"/><path class="cls-10" d="M294.66,51.62c4.31.32,7.49-3.68,7-7.81-.5-4.71-4.47-7.52-8.29-9.65-2.81-1.57-5.34,2.75-2.52,4.32a14.54,14.54,0,0,1,4.88,3.61c1.14,1.52,1.66,4.73-1.12,4.53-3.21-.24-3.2,4.76,0,5Z"/><path class="cls-10" d="M290.43,26.31v-.45a2.5,2.5,0,0,0-5,0v.45a2.5,2.5,0,1,0,5,0Z"/><path class="cls-10" d="M292.84,22.11c3.22,0,3.23-5,0-5s-3.22,5,0,5Z"/><path class="cls-10" d="M460,203.66a244.32,244.32,0,0,1,2.52,98.14c-.56,3.15,4.25,4.5,4.82,1.33a250.76,250.76,0,0,0-2.52-100.8c-.73-3.13-5.55-1.81-4.82,1.33Z"/><path class="cls-10" d="M463.73,315.26c3.22,0,3.23-5,0-5s-3.22,5,0,5Z"/><path class="cls-10" d="M65.58,296c9.19,4.41,21.58,3.46,31.27,1.38a67.5,67.5,0,0,0,28.7-14.06c2.49-2.05-1.07-5.57-3.54-3.54a62,62,0,0,1-24.93,12.43c-8.58,2.06-20.73,3.43-29-.53-2.89-1.39-5.43,2.92-2.53,4.32Z"/><path class="cls-10" d="M132.64,277.49l.45-.44a2.5,2.5,0,1,0-3.54-3.54l-.44.45a2.5,2.5,0,1,0,3.53,3.53Z"/><path class="cls-10" d="M140.69,273.76c3.22,0,3.23-5,0-5s-3.22,5,0,5Z"/></g></g></svg>